<svg xmlns="http://www.w3.org/2000/svg" viewBox="0 0 256 256">
  <defs>
    <linearGradient id="card" x1="0" y1="0" x2="1" y2="1">
      <stop offset="0%" stop-color="#c9a4b6"/>
      <stop offset="100%" stop-color="#a77f95"/>
    </linearGradient>
  </defs>
  <rect x="16" y="32" width="224" height="192" rx="28" fill="url(#card)"/>
  <rect x="28" y="44" width="200" height="168" rx="22" fill="#b38ca2" opacity="0.25"/>
  <g fill="#ffffff">
    <path d="M64 84l10 10 18-22 10 8-28 32-20-20z"/>
    <rect x="110" y="76" width="82" height="10" rx="5"/>
    <rect x="110" y="100" width="62" height="10" rx="5"/>
    <path d="M64 130l10 10 18-22 10 8-28 32-20-20z"/>
    <rect x="110" y="122" width="82" height="10" rx="5"/>
    <rect x="110" y="146" width="62" height="10" rx="5"/>
  </g>
  <g fill="#8a5b76">
    <rect x="56" y="188" width="12" height="12" rx="6"/>
    <rect x="78" y="188" width="12" height="12" rx="6"/>
    <rect x="100" y="188" width="12" height="12" rx="6"/>
    <rect x="122" y="188" width="12" height="12" rx="6"/>
    <rect x="144" y="188" width="12" height="12" rx="6"/>
    <rect x="166" y="188" width="12" height="12" rx="6"/>
  </g>
</svg>
